<svg id="svg" version="1.1" xmlns="http://www.w3.org/2000/svg" xmlns:xlink="http://www.w3.org/1999/xlink" width="400" height="412.67605633802816" viewBox="0, 0, 400,412.67605633802816"><g id="svgg"><path id="path0" d="M247.397 6.972 C 247.081 7.424,245.008 7.589,237.200 7.781 C 225.603 8.067,226.489 7.992,226.212 8.712 C 226.024 9.202,225.888 9.207,225.318 8.745 C 224.856 8.370,224.740 8.356,224.947 8.700 C 225.182 9.091,223.786 9.211,218.524 9.251 C 209.976 9.315,210.260 9.292,209.386 10.000 C 208.729 10.533,208.686 10.533,209.000 10.000 C 209.294 9.501,209.250 9.484,208.739 9.898 C 208.219 10.318,205.205 10.697,201.729 10.779 C 201.249 10.791,200.596 11.062,200.276 11.381 C 199.839 11.818,198.486 11.978,194.832 12.025 C 191.168 12.073,189.825 12.232,189.385 12.672 C 189.002 13.055,187.599 13.328,185.301 13.465 C 183.058 13.600,181.646 13.869,181.372 14.215 C 181.086 14.576,179.861 14.781,177.672 14.834 C 175.151 14.895,174.400 15.043,174.400 15.480 C 174.400 15.792,174.220 15.936,174.000 15.800 C 173.780 15.664,173.600 15.716,173.600 15.916 C 173.600 16.115,172.296 16.317,170.702 16.363 C 168.665 16.423,167.709 16.619,167.483 17.024 C 167.248 17.444,166.362 17.600,164.213 17.600 C 160.840 17.600,159.960 17.831,160.268 18.633 C 160.437 19.072,160.026 19.214,158.443 19.260 C 155.483 19.347,155.450 19.353,154.871 19.900 C 154.581 20.175,153.681 20.427,152.871 20.461 C 152.062 20.494,151.130 20.540,150.800 20.561 C 150.470 20.583,150.200 20.871,150.200 21.201 C 150.200 21.653,149.611 21.830,147.803 21.923 C 146.234 22.003,145.295 22.245,145.083 22.623 C 144.876 22.993,144.112 23.200,142.954 23.200 C 141.002 23.200,139.435 23.809,139.812 24.420 C 139.946 24.637,139.326 24.800,138.368 24.800 C 137.360 24.800,136.511 25.035,136.244 25.387 C 136.000 25.710,134.900 26.059,133.800 26.163 C 132.700 26.267,131.710 26.384,131.600 26.423 C 131.490 26.463,131.243 26.466,131.051 26.431 C 130.859 26.396,130.794 26.608,130.907 26.902 C 131.034 27.233,130.796 27.460,130.283 27.499 C 129.827 27.533,129.297 27.840,129.107 28.181 C 128.901 28.549,128.213 28.800,127.413 28.800 C 125.670 28.800,124.800 29.147,124.800 29.843 C 124.800 30.341,122.748 30.686,121.400 30.414 C 121.180 30.370,121.134 30.467,121.297 30.631 C 121.693 31.027,120.111 32.116,119.599 31.800 C 119.240 31.578,119.027 32.103,119.153 32.900 C 119.179 33.065,119.065 33.179,118.900 33.153 C 117.175 32.880,114.400 33.279,114.400 33.800 C 114.400 34.179,114.018 34.400,113.363 34.400 C 112.662 34.400,112.257 34.659,112.116 35.200 C 111.952 35.827,111.570 36.000,110.349 36.000 C 109.301 36.000,108.574 36.255,108.125 36.780 C 107.758 37.208,107.297 37.460,107.102 37.339 C 106.906 37.218,106.647 37.498,106.526 37.960 C 106.354 38.619,105.994 38.800,104.850 38.800 C 103.806 38.800,103.245 39.037,102.872 39.633 C 102.580 40.101,102.101 40.371,101.782 40.248 C 101.461 40.125,101.029 40.373,100.792 40.815 C 100.528 41.309,99.955 41.600,99.248 41.600 C 98.630 41.600,97.798 41.960,97.400 42.400 C 97.002 42.840,96.428 43.200,96.125 43.200 C 95.823 43.200,95.471 43.470,95.345 43.800 C 95.214 44.140,94.618 44.400,93.971 44.400 C 93.232 44.400,92.675 44.687,92.394 45.211 C 92.155 45.657,91.777 45.909,91.553 45.771 C 91.329 45.633,91.047 45.898,90.926 46.360 C 90.728 47.119,89.806 47.457,88.600 47.214 C 88.380 47.170,88.326 47.260,88.481 47.414 C 88.851 47.785,87.819 48.800,87.071 48.800 C 86.749 48.800,86.382 49.070,86.255 49.400 C 86.129 49.730,85.569 50.000,85.013 50.000 C 84.456 50.000,84.000 50.204,84.000 50.454 C 84.000 51.322,81.971 52.800,80.779 52.800 C 79.867 52.800,79.600 52.981,79.600 53.600 C 79.600 54.040,79.375 54.403,79.100 54.407 C 78.825 54.411,78.177 54.860,77.659 55.405 C 77.142 55.951,76.566 56.303,76.379 56.187 C 76.193 56.072,75.845 56.343,75.606 56.789 C 75.367 57.235,74.908 57.600,74.586 57.600 C 74.264 57.600,74.000 57.881,74.000 58.224 C 74.000 58.567,73.833 58.744,73.629 58.618 C 73.425 58.492,73.143 58.751,73.002 59.194 C 72.770 59.926,72.326 60.178,71.500 60.047 C 71.335 60.021,71.200 60.276,71.200 60.613 C 71.200 60.949,70.930 61.329,70.600 61.455 C 70.270 61.582,70.000 61.936,70.000 62.243 C 70.000 62.549,69.640 62.800,69.200 62.800 C 68.756 62.800,68.400 63.067,68.400 63.400 C 68.400 63.771,68.024 64.000,67.414 64.000 C 66.867 64.000,66.253 64.327,66.035 64.734 C 65.819 65.137,65.004 65.902,64.224 66.434 C 63.444 66.965,62.804 67.625,62.803 67.900 C 62.801 68.175,62.446 68.400,62.013 68.400 C 61.499 68.400,61.300 68.596,61.441 68.964 C 61.572 69.303,61.327 69.633,60.829 69.791 C 60.373 69.936,60.000 70.312,60.000 70.627 C 60.000 70.942,59.796 71.200,59.546 71.200 C 59.012 71.200,57.200 73.070,57.200 73.621 C 57.200 73.829,56.942 74.000,56.627 74.000 C 56.312 74.000,55.940 74.360,55.800 74.800 C 55.660 75.240,55.269 75.600,54.930 75.600 C 54.592 75.600,54.400 75.825,54.505 76.100 C 54.765 76.785,54.089 78.502,53.662 78.238 C 53.472 78.121,53.115 78.469,52.867 79.013 C 52.620 79.556,52.233 80.000,52.009 80.000 C 51.784 80.000,51.600 80.270,51.600 80.600 C 51.600 80.933,51.244 81.200,50.800 81.200 C 50.360 81.200,50.000 81.445,50.000 81.744 C 50.000 82.043,49.286 83.099,48.413 84.090 C 47.540 85.082,46.955 86.036,47.113 86.211 C 47.271 86.385,47.175 86.399,46.899 86.240 C 46.582 86.057,46.264 86.306,46.030 86.921 C 45.827 87.455,45.377 88.000,45.031 88.133 C 44.684 88.266,44.400 88.586,44.400 88.843 C 44.400 89.101,44.133 89.512,43.807 89.756 C 43.482 90.000,43.159 90.560,43.090 91.000 C 43.022 91.440,42.397 92.416,41.702 93.169 C 41.006 93.921,40.513 94.659,40.605 94.809 C 40.698 94.958,40.329 95.682,39.787 96.418 C 39.244 97.154,38.800 98.080,38.800 98.478 C 38.800 98.875,38.542 99.200,38.227 99.200 C 37.912 99.200,37.540 99.560,37.400 100.000 C 37.260 100.440,36.888 100.800,36.573 100.800 C 36.185 100.800,36.000 101.251,36.000 102.200 C 36.000 103.158,35.816 103.600,35.418 103.600 C 35.070 103.600,34.731 104.162,34.574 105.000 C 34.429 105.770,34.074 106.400,33.783 106.400 C 33.493 106.400,33.194 106.805,33.118 107.300 C 33.043 107.795,32.760 108.155,32.491 108.100 C 32.221 108.045,32.021 108.135,32.047 108.300 C 32.073 108.465,32.060 108.690,32.018 108.800 C 31.975 108.910,31.861 109.450,31.763 110.000 C 31.665 110.550,31.318 111.200,30.993 111.444 C 30.667 111.688,30.400 112.193,30.400 112.565 C 30.400 113.558,28.685 116.393,28.082 116.397 C 27.798 116.399,27.594 116.625,27.630 116.900 C 27.903 119.003,27.562 120.400,26.776 120.400 C 26.323 120.400,26.050 120.557,26.168 120.748 C 26.287 120.940,26.027 121.508,25.592 122.010 C 24.997 122.695,24.800 123.505,24.800 125.261 C 24.800 127.333,24.709 127.600,24.000 127.600 C 23.463 127.600,23.200 127.867,23.200 128.413 C 23.200 128.859,22.930 129.329,22.600 129.455 C 22.203 129.608,22.000 130.235,22.000 131.311 C 22.000 132.279,21.725 133.241,21.321 133.687 C 20.948 134.099,20.599 135.008,20.546 135.706 C 20.493 136.404,20.168 137.180,19.825 137.432 C 19.392 137.748,19.200 138.553,19.200 140.056 C 19.200 141.765,19.031 142.345,18.400 142.800 C 17.880 143.175,17.600 143.835,17.600 144.688 C 17.600 145.500,17.416 145.962,17.118 145.900 C 16.560 145.784,16.517 145.993,16.450 149.163 C 16.406 151.262,16.317 151.503,15.651 151.329 C 14.975 151.152,14.897 151.410,14.844 154.003 C 14.804 155.938,14.592 157.065,14.192 157.465 C 13.867 157.791,13.573 158.809,13.541 159.729 C 13.441 162.536,13.419 162.648,12.805 163.391 C 12.437 163.836,12.153 165.233,12.061 167.052 C 11.980 168.670,11.765 169.902,11.584 169.790 C 10.935 169.389,10.678 170.582,10.575 174.488 C 10.501 177.299,10.298 178.655,9.880 179.129 C 9.451 179.616,9.270 180.937,9.221 183.952 C 9.171 186.961,8.994 188.264,8.576 188.681 C 8.259 188.998,7.982 189.829,7.961 190.529 C 7.939 191.228,7.850 194.481,7.762 197.758 C 7.660 201.548,7.429 203.924,7.127 204.288 C 6.842 204.631,6.802 204.969,7.026 205.130 C 7.539 205.500,7.714 206.744,7.365 207.541 C 6.806 208.819,6.756 210.171,7.236 211.067 C 7.625 211.794,7.611 212.104,7.168 212.638 C 6.503 213.440,6.308 217.080,6.874 218.138 C 7.177 218.704,7.158 218.821,6.800 218.600 C 6.429 218.371,6.426 218.502,6.788 219.177 C 7.079 219.722,7.117 220.230,6.887 220.526 C 6.344 221.225,6.554 225.201,7.154 225.572 C 7.534 225.806,7.692 228.076,7.778 234.553 C 7.883 242.370,7.968 243.304,8.647 244.079 C 9.127 244.626,9.182 244.812,8.800 244.592 C 8.313 244.312,8.289 244.357,8.671 244.829 C 8.954 245.180,9.183 247.206,9.245 249.903 C 9.347 254.337,9.550 255.397,10.245 255.134 C 10.440 255.060,10.640 256.223,10.689 257.717 C 10.739 259.212,11.047 261.012,11.376 261.717 C 11.704 262.423,12.022 264.125,12.083 265.500 C 12.158 267.183,12.358 268.000,12.697 268.000 C 12.974 268.000,13.200 268.191,13.200 268.424 C 13.200 268.657,12.975 268.733,12.700 268.594 C 12.425 268.455,12.484 268.579,12.831 268.870 C 13.251 269.224,13.493 270.197,13.555 271.795 C 13.608 273.144,13.890 274.457,14.200 274.800 C 14.519 275.153,14.789 276.469,14.842 277.926 C 14.913 279.898,15.092 280.528,15.666 280.836 C 16.206 281.124,16.400 281.690,16.400 282.971 C 16.400 284.152,16.594 284.789,17.000 284.945 C 17.422 285.106,17.600 285.764,17.600 287.155 C 17.600 289.508,17.887 290.400,18.643 290.400 C 18.949 290.400,19.200 290.770,19.200 291.222 C 19.200 292.844,22.966 292.151,23.125 290.500 C 23.203 289.695,23.469 289.200,23.825 289.200 C 24.171 289.200,24.400 288.803,24.400 288.203 C 24.400 287.640,24.748 286.990,25.200 286.707 C 25.640 286.432,26.000 285.891,26.000 285.504 C 26.000 285.117,26.270 284.800,26.600 284.800 C 27.122 284.800,27.430 283.768,27.236 282.666 C 27.204 282.482,27.542 282.236,27.989 282.119 C 28.596 281.960,28.800 281.576,28.800 280.596 C 28.800 279.839,29.038 279.194,29.362 279.070 C 29.672 278.951,30.046 278.302,30.194 277.627 C 30.342 276.952,30.719 276.400,31.032 276.400 C 31.344 276.400,31.600 276.136,31.600 275.814 C 31.600 275.492,31.965 275.033,32.411 274.794 C 32.857 274.555,33.116 274.188,32.986 273.977 C 32.856 273.767,33.022 273.490,33.355 273.362 C 33.707 273.227,34.075 272.370,34.232 271.324 C 34.415 270.105,34.613 269.695,34.843 270.060 C 35.093 270.456,35.315 270.254,35.679 269.300 C 35.952 268.585,36.406 268.000,36.688 268.000 C 36.969 268.000,37.200 267.713,37.200 267.363 C 37.200 267.013,37.560 266.269,38.000 265.709 C 38.440 265.150,38.800 264.400,38.800 264.042 C 38.800 263.685,39.167 263.163,39.616 262.883 C 40.069 262.600,40.306 262.172,40.150 261.919 C 39.963 261.616,40.099 261.552,40.555 261.727 C 40.963 261.884,41.142 261.830,40.997 261.595 C 40.863 261.378,40.943 261.200,41.176 261.200 C 41.409 261.200,41.600 260.840,41.600 260.400 C 41.600 259.960,41.849 259.600,42.153 259.600 C 42.458 259.600,42.806 259.222,42.926 258.760 C 43.047 258.298,43.325 258.030,43.544 258.166 C 43.763 258.301,44.057 258.049,44.198 257.606 C 44.339 257.163,44.712 256.800,45.027 256.800 C 45.415 256.800,45.600 256.349,45.600 255.400 C 45.600 254.386,45.776 254.000,46.237 254.000 C 46.588 254.000,46.969 253.640,47.084 253.200 C 47.199 252.760,47.542 252.400,47.847 252.400 C 48.151 252.400,48.400 252.130,48.400 251.800 C 48.400 251.470,48.658 251.200,48.973 251.200 C 49.288 251.200,49.655 250.857,49.788 250.437 C 49.921 250.017,50.294 249.573,50.615 249.450 C 50.937 249.326,51.200 248.939,51.200 248.589 C 51.200 248.239,51.335 248.035,51.500 248.134 C 51.784 248.306,53.113 247.143,52.900 246.910 C 52.443 246.408,53.017 245.657,54.008 245.458 C 54.953 245.269,55.269 244.953,55.458 244.008 C 55.591 243.344,55.868 242.800,56.074 242.800 C 56.279 242.800,56.319 243.008,56.162 243.262 C 55.985 243.548,56.052 243.615,56.338 243.438 C 56.592 243.281,56.800 242.713,56.800 242.176 C 56.800 241.467,57.018 241.200,57.600 241.200 C 58.040 241.200,58.400 241.016,58.400 240.791 C 58.400 240.567,58.844 240.180,59.387 239.933 C 59.931 239.685,60.280 239.329,60.164 239.142 C 60.048 238.954,60.135 238.800,60.358 238.800 C 60.581 238.800,61.260 238.305,61.867 237.700 C 62.473 237.095,63.125 236.649,63.315 236.710 C 63.504 236.770,63.538 236.623,63.389 236.382 C 63.071 235.868,65.240 233.826,66.868 233.106 C 67.491 232.830,68.000 232.391,68.000 232.129 C 68.000 231.868,68.360 231.540,68.800 231.400 C 69.240 231.260,69.600 230.909,69.600 230.620 C 69.600 230.330,69.978 229.994,70.440 229.874 C 70.937 229.744,71.166 229.468,71.000 229.200 C 70.834 228.932,71.063 228.656,71.560 228.526 C 72.022 228.406,72.400 228.058,72.400 227.753 C 72.400 227.449,72.760 227.200,73.200 227.200 C 73.644 227.200,74.000 226.933,74.000 226.600 C 74.000 226.270,74.135 226.030,74.300 226.066 C 75.055 226.231,76.800 225.457,76.800 224.957 C 76.800 224.650,77.070 224.400,77.400 224.400 C 77.730 224.400,78.000 224.130,78.000 223.800 C 78.000 223.259,78.475 223.022,79.300 223.153 C 79.465 223.179,79.600 223.020,79.600 222.800 C 79.600 222.580,79.762 222.445,79.960 222.500 C 80.158 222.555,80.293 222.449,80.260 222.264 C 80.227 222.079,80.695 221.668,81.300 221.351 C 81.905 221.034,82.400 220.590,82.400 220.364 C 82.400 220.138,82.592 220.072,82.827 220.217 C 83.062 220.362,83.353 220.103,83.474 219.640 C 83.632 219.036,84.012 218.800,84.827 218.800 C 85.450 218.800,86.104 218.575,86.280 218.300 C 86.456 218.025,86.960 217.592,87.400 217.337 C 87.840 217.083,88.155 216.678,88.100 216.437 C 88.045 216.197,88.360 215.978,88.800 215.950 C 90.359 215.853,90.599 215.758,90.500 215.282 C 90.445 215.017,90.580 214.778,90.800 214.750 C 91.020 214.722,91.335 214.653,91.500 214.596 C 91.665 214.539,92.203 214.361,92.696 214.201 C 93.188 214.040,93.492 213.750,93.372 213.555 C 93.251 213.360,93.523 213.200,93.976 213.200 C 94.437 213.200,94.800 212.939,94.800 212.608 C 94.800 212.282,95.295 211.892,95.900 211.741 C 96.505 211.591,97.180 211.228,97.400 210.935 C 97.620 210.642,98.295 210.362,98.901 210.314 C 99.551 210.261,100.094 209.934,100.228 209.513 C 100.385 209.017,100.860 208.800,101.784 208.800 C 102.598 208.800,103.204 208.567,103.345 208.200 C 103.471 207.870,103.807 207.600,104.091 207.600 C 104.375 207.600,104.832 207.240,105.107 206.800 C 105.470 206.220,106.040 206.000,107.184 206.000 C 108.146 206.000,108.887 205.774,109.085 205.419 C 109.264 205.099,110.097 204.792,110.936 204.735 C 111.916 204.669,112.599 204.376,112.845 203.916 C 113.056 203.522,113.473 203.200,113.771 203.200 C 114.070 203.200,114.418 202.930,114.545 202.600 C 114.694 202.212,115.313 202.000,116.299 202.000 C 117.365 202.000,117.997 201.759,118.400 201.200 C 118.745 200.722,119.435 200.400,120.117 200.400 C 120.744 200.400,121.527 200.130,121.857 199.800 C 122.389 199.269,123.723 199.001,125.052 199.159 C 125.300 199.189,125.598 198.850,125.714 198.406 C 125.891 197.731,126.256 197.600,127.963 197.600 C 129.379 197.600,129.970 197.448,129.900 197.100 C 129.839 196.795,130.345 196.548,131.198 196.467 C 131.968 196.394,132.857 196.124,133.175 195.867 C 133.623 195.505,133.687 195.512,133.456 195.895 C 133.257 196.227,133.355 196.315,133.754 196.162 C 134.082 196.037,134.252 195.679,134.132 195.367 C 133.959 194.916,134.410 194.800,136.329 194.800 C 137.941 194.800,138.942 194.601,139.343 194.200 C 139.679 193.864,140.657 193.600,141.568 193.600 C 142.760 193.600,143.326 193.387,143.693 192.800 C 144.105 192.140,144.626 192.000,146.664 192.000 C 149.349 192.000,150.521 191.719,150.174 191.158 C 150.052 190.961,150.818 190.773,151.876 190.741 C 152.934 190.708,154.070 190.645,154.400 190.600 C 154.730 190.555,155.236 190.492,155.524 190.459 C 155.812 190.427,155.944 190.232,155.817 190.028 C 155.432 189.405,156.051 189.277,160.003 189.164 C 162.240 189.100,164.135 188.842,164.615 188.537 C 165.093 188.234,167.011 187.971,169.252 187.901 C 172.230 187.809,173.227 187.630,173.766 187.091 C 174.574 186.283,174.977 186.184,174.547 186.900 C 174.310 187.295,174.373 187.298,174.846 186.915 C 175.247 186.591,177.391 186.414,181.331 186.378 C 185.673 186.339,187.358 186.184,187.756 185.787 C 188.176 185.367,190.723 185.228,199.368 185.152 C 205.459 185.098,210.526 184.920,210.628 184.755 C 210.730 184.590,211.278 184.540,211.847 184.643 C 212.416 184.746,213.133 184.622,213.441 184.366 C 213.871 184.009,214.000 184.023,214.000 184.427 C 214.000 184.791,214.154 184.751,214.500 184.296 C 214.916 183.749,215.937 183.626,220.600 183.562 C 226.405 183.482,227.348 183.363,226.974 182.758 C 226.852 182.561,228.068 182.380,229.676 182.356 C 234.271 182.287,235.314 182.132,235.818 181.443 C 236.183 180.944,237.012 180.800,239.511 180.800 C 242.777 180.800,244.142 180.554,243.815 180.025 C 243.614 179.699,243.747 179.672,246.674 179.444 C 247.814 179.355,249.159 178.994,249.663 178.641 C 250.166 178.288,251.249 178.000,252.069 178.000 C 253.020 178.000,253.690 177.768,253.919 177.360 C 254.137 176.969,254.962 176.661,256.038 176.570 C 258.684 176.345,259.410 176.140,259.300 175.647 C 259.239 175.376,259.823 175.200,260.780 175.200 C 261.836 175.200,262.483 174.980,262.731 174.537 C 263.081 173.912,263.783 173.712,265.900 173.633 C 266.419 173.614,266.800 173.346,266.800 173.000 C 266.800 172.581,267.222 172.400,268.197 172.400 C 269.160 172.400,269.748 172.152,270.093 171.600 C 270.390 171.124,271.026 170.800,271.664 170.800 C 273.066 170.800,274.052 170.407,273.774 169.958 C 273.652 169.761,273.878 169.594,274.276 169.587 C 275.160 169.572,276.487 168.620,276.127 168.260 C 275.984 168.117,276.442 168.000,277.146 168.000 C 277.914 168.000,278.517 167.760,278.655 167.400 C 278.782 167.070,279.243 166.800,279.680 166.800 C 280.138 166.800,280.563 166.461,280.684 166.000 C 280.841 165.399,281.230 165.200,282.247 165.200 C 283.070 165.200,283.600 165.002,283.600 164.695 C 283.600 164.417,284.005 164.005,284.500 163.780 C 284.995 163.555,285.355 163.152,285.300 162.885 C 285.245 162.618,285.545 162.400,285.967 162.400 C 287.126 162.400,288.025 161.964,287.757 161.531 C 287.627 161.319,287.898 161.047,288.360 160.926 C 288.822 160.806,289.200 160.458,289.200 160.153 C 289.200 159.653,289.693 159.425,290.500 159.553 C 290.665 159.579,290.800 159.350,290.800 159.045 C 290.800 158.726,291.398 158.377,292.200 158.226 C 293.038 158.069,293.600 157.730,293.600 157.382 C 293.600 157.062,293.870 156.800,294.200 156.800 C 294.530 156.800,294.800 156.530,294.800 156.200 C 294.800 155.867,295.156 155.600,295.600 155.600 C 296.133 155.600,296.400 155.333,296.400 154.800 C 296.400 154.360,296.630 154.000,296.911 154.000 C 297.192 154.000,297.705 153.685,298.050 153.300 C 298.395 152.915,299.020 152.368,299.439 152.085 C 299.858 151.802,299.975 151.678,299.700 151.809 C 299.425 151.940,299.200 151.869,299.200 151.651 C 299.200 151.434,299.605 151.194,300.100 151.118 C 300.595 151.043,300.951 150.747,300.890 150.461 C 300.830 150.175,300.965 150.055,301.191 150.194 C 301.417 150.334,301.767 150.012,301.970 149.479 C 302.319 148.560,303.410 147.786,304.130 147.946 C 304.311 147.987,304.345 147.835,304.206 147.610 C 304.067 147.384,304.122 147.200,304.330 147.200 C 304.537 147.200,304.801 146.840,304.916 146.400 C 305.031 145.960,305.391 145.600,305.716 145.600 C 306.041 145.600,306.406 145.222,306.526 144.760 C 306.647 144.297,306.938 144.038,307.173 144.183 C 307.423 144.338,307.600 144.105,307.600 143.624 C 307.600 143.067,307.859 142.800,308.400 142.800 C 308.844 142.800,309.200 142.533,309.200 142.200 C 309.200 141.870,309.470 141.600,309.800 141.600 C 310.346 141.600,310.582 141.116,310.441 140.281 C 310.412 140.106,310.705 140.016,311.094 140.081 C 311.568 140.161,311.842 139.904,311.928 139.300 C 311.998 138.805,312.313 138.400,312.628 138.400 C 312.943 138.400,313.200 138.130,313.200 137.800 C 313.200 137.470,313.487 137.200,313.837 137.200 C 314.188 137.200,314.569 136.840,314.684 136.400 C 314.799 135.960,315.142 135.600,315.447 135.600 C 315.751 135.600,316.000 135.330,316.000 135.000 C 316.000 134.474,316.441 134.238,317.246 134.335 C 317.382 134.351,317.492 134.057,317.492 133.682 C 317.489 132.037,317.637 131.600,318.200 131.600 C 318.533 131.600,318.800 131.244,318.800 130.800 C 318.800 130.360,319.058 130.000,319.373 130.000 C 319.688 130.000,320.061 129.637,320.202 129.194 C 320.343 128.751,320.607 128.481,320.790 128.594 C 320.973 128.707,321.311 128.257,321.542 127.594 C 321.773 126.932,322.241 126.283,322.581 126.152 C 322.921 126.021,323.200 125.595,323.200 125.204 C 323.200 124.813,323.578 124.394,324.040 124.274 C 324.537 124.144,324.766 123.868,324.600 123.600 C 324.434 123.332,324.663 123.056,325.160 122.926 C 325.771 122.767,326.000 122.389,326.000 121.541 C 326.000 120.873,326.257 120.276,326.600 120.145 C 326.930 120.018,327.200 119.664,327.200 119.357 C 327.200 119.051,327.521 118.800,327.913 118.800 C 328.402 118.800,328.653 118.455,328.714 117.700 C 328.762 117.095,329.071 116.401,329.400 116.157 C 329.728 115.913,330.110 115.148,330.249 114.457 C 330.387 113.766,330.748 113.200,331.050 113.200 C 331.797 113.200,331.758 111.301,330.996 110.539 C 330.664 110.207,330.495 109.770,330.620 109.568 C 331.000 108.952,325.363 109.121,324.849 109.741 C 324.579 110.067,323.131 110.379,321.206 110.528 C 319.419 110.666,317.602 111.042,317.083 111.383 C 316.458 111.792,315.057 112.007,312.795 112.040 C 310.739 112.070,309.118 112.297,308.618 112.625 C 308.136 112.941,306.151 113.242,303.800 113.356 C 298.876 113.596,297.581 113.784,297.255 114.306 C 297.104 114.546,293.803 114.803,289.200 114.932 C 280.110 115.187,281.093 115.103,281.400 115.600 C 281.551 115.844,280.899 116.009,279.724 116.024 C 272.331 116.118,269.505 116.362,268.837 116.966 C 267.949 117.770,267.340 117.795,268.000 117.000 C 268.421 116.493,268.339 116.400,267.473 116.400 C 266.909 116.400,266.319 116.608,266.162 116.862 C 265.985 117.148,266.052 117.215,266.338 117.038 C 266.592 116.881,266.800 116.943,266.800 117.176 C 266.800 117.463,263.286 117.610,255.900 117.631 C 244.489 117.663,243.630 117.710,243.240 118.326 C 243.100 118.547,236.521 118.796,227.400 118.925 C 218.820 119.047,211.768 119.158,211.729 119.173 C 211.689 119.188,211.397 119.461,211.078 119.779 C 210.613 120.244,208.818 120.370,201.950 120.418 C 195.522 120.464,193.251 120.609,192.800 121.005 C 192.388 121.367,190.259 121.606,186.000 121.770 C 178.782 122.048,178.297 122.108,178.081 122.756 C 177.971 123.086,177.739 123.010,177.359 122.521 C 176.829 121.840,176.813 121.844,177.074 122.600 C 177.328 123.336,177.290 123.352,176.598 122.800 C 176.161 122.451,175.972 122.409,176.147 122.700 C 176.416 123.147,171.457 123.522,169.260 123.221 C 168.963 123.180,168.828 123.322,168.960 123.536 C 169.097 123.758,168.876 123.840,168.446 123.728 C 168.030 123.619,167.564 123.735,167.410 123.985 C 167.204 124.317,166.956 124.299,166.488 123.919 C 166.135 123.634,165.968 123.603,166.117 123.851 C 166.468 124.437,164.644 124.800,161.350 124.800 C 159.350 124.800,158.800 124.929,158.800 125.400 C 158.800 125.880,158.140 126.012,155.500 126.061 C 151.296 126.139,151.515 126.106,150.372 126.827 C 149.793 127.193,148.269 127.482,146.600 127.541 C 144.782 127.606,143.650 127.836,143.373 128.197 C 143.106 128.545,142.022 128.786,140.479 128.842 C 138.484 128.914,137.968 129.071,137.779 129.665 C 137.580 130.293,137.105 130.400,134.505 130.400 C 132.466 130.400,131.255 130.585,130.831 130.960 C 130.484 131.267,129.030 131.616,127.600 131.735 C 126.170 131.854,124.944 131.962,124.876 131.976 C 124.808 131.989,124.856 132.168,124.983 132.372 C 125.358 132.979,124.711 133.149,121.676 133.237 C 119.571 133.299,118.800 133.466,118.800 133.861 C 118.800 134.207,118.316 134.400,117.450 134.400 C 115.470 134.400,113.580 134.845,113.832 135.252 C 114.137 135.745,113.381 135.943,110.600 136.098 C 108.989 136.188,108.233 136.391,108.300 136.716 C 108.362 137.015,107.903 137.202,107.100 137.205 C 105.200 137.213,104.000 137.616,104.000 138.247 C 104.000 138.626,103.496 138.800,102.400 138.800 C 101.390 138.800,100.798 138.984,100.794 139.300 C 100.790 139.633,100.658 139.600,100.400 139.200 C 100.069 138.687,100.011 138.702,100.006 139.300 C 100.003 139.685,99.809 140.000,99.576 140.000 C 99.343 140.000,99.280 139.775,99.435 139.500 C 99.661 139.100,99.610 139.100,99.179 139.500 C 98.882 139.775,98.046 140.000,97.320 140.000 C 96.594 140.000,96.000 140.191,96.000 140.424 C 96.000 140.657,95.820 140.736,95.600 140.600 C 95.380 140.464,95.200 140.633,95.200 140.976 C 95.200 141.452,94.758 141.600,93.344 141.600 C 92.180 141.600,91.323 141.819,91.044 142.188 C 90.800 142.511,89.903 142.819,89.050 142.873 C 88.074 142.934,87.335 143.235,87.054 143.685 C 86.761 144.155,86.118 144.400,85.180 144.400 C 84.395 144.400,83.404 144.664,82.976 144.987 C 82.549 145.310,81.840 145.581,81.400 145.589 C 80.960 145.597,80.011 145.962,79.290 146.401 C 78.570 146.841,77.445 147.200,76.790 147.200 C 75.999 147.200,75.600 147.401,75.600 147.800 C 75.600 148.353,73.841 148.663,72.069 148.423 C 71.777 148.383,71.441 148.722,71.322 149.175 C 71.159 149.798,70.783 150.000,69.786 150.000 C 68.189 150.000,67.130 150.364,67.410 150.816 C 67.523 150.999,66.791 151.272,65.784 151.423 C 64.501 151.616,64.013 151.857,64.155 152.227 C 64.300 152.604,63.875 152.791,62.679 152.878 C 61.432 152.969,61.034 153.154,61.133 153.600 C 61.207 153.930,61.146 154.080,60.999 153.933 C 60.660 153.593,58.369 154.378,57.671 155.073 C 57.381 155.363,56.625 155.600,55.991 155.600 C 55.358 155.600,54.696 155.854,54.520 156.165 C 53.923 157.219,51.200 157.438,51.200 156.432 C 51.200 155.961,51.484 155.466,51.831 155.333 C 52.177 155.200,52.627 154.655,52.830 154.121 C 53.033 153.588,53.379 153.263,53.599 153.400 C 53.820 153.536,54.000 153.457,54.000 153.224 C 54.000 152.991,53.775 152.797,53.500 152.794 C 53.117 152.789,53.121 152.711,53.521 152.457 C 53.808 152.275,54.011 151.963,53.974 151.763 C 53.781 150.741,54.081 150.028,54.800 149.800 C 55.240 149.660,55.600 149.387,55.600 149.194 C 55.600 148.691,57.413 146.800,57.896 146.800 C 58.118 146.800,58.300 146.319,58.300 145.731 C 58.300 145.143,58.559 144.468,58.875 144.231 C 59.432 143.813,60.076 142.617,60.184 141.800 C 60.213 141.580,60.453 141.445,60.718 141.500 C 60.983 141.555,61.200 141.240,61.200 140.800 C 61.200 140.360,61.451 140.000,61.757 140.000 C 62.064 140.000,62.418 139.730,62.545 139.400 C 62.671 139.070,63.051 138.800,63.387 138.800 C 63.726 138.800,64.000 138.454,64.000 138.027 C 64.000 137.602,64.363 137.139,64.806 136.998 C 65.249 136.857,65.514 136.584,65.395 136.391 C 65.275 136.198,65.543 135.845,65.989 135.606 C 66.435 135.367,66.800 134.914,66.800 134.598 C 66.800 134.253,67.039 134.117,67.400 134.255 C 67.937 134.461,68.191 134.008,68.047 133.100 C 68.021 132.935,68.270 132.800,68.600 132.800 C 68.930 132.800,69.200 132.542,69.200 132.227 C 69.200 131.912,69.551 131.543,69.980 131.406 C 70.408 131.270,70.858 130.853,70.979 130.480 C 71.100 130.106,71.826 129.374,72.594 128.852 C 73.361 128.331,73.890 127.746,73.771 127.552 C 73.651 127.359,73.790 127.200,74.079 127.200 C 74.369 127.200,75.184 126.570,75.890 125.800 C 76.597 125.030,77.361 124.400,77.588 124.400 C 77.814 124.400,78.000 124.130,78.000 123.800 C 78.000 123.467,78.356 123.200,78.800 123.200 C 79.333 123.200,79.600 122.933,79.600 122.400 C 79.600 121.867,79.867 121.600,80.400 121.600 C 81.696 121.600,81.786 121.569,82.102 121.003 C 82.269 120.706,82.944 120.344,83.602 120.199 C 84.261 120.055,84.800 119.681,84.800 119.368 C 84.800 119.056,85.076 118.800,85.413 118.800 C 85.749 118.800,86.129 118.530,86.255 118.200 C 86.382 117.870,86.724 117.600,87.016 117.600 C 87.307 117.600,87.660 117.240,87.800 116.800 C 87.940 116.360,88.222 116.000,88.427 116.000 C 88.632 116.000,89.160 115.640,89.600 115.200 C 90.040 114.760,90.754 114.400,91.187 114.400 C 91.723 114.400,91.901 114.208,91.745 113.800 C 91.572 113.350,91.810 113.200,92.696 113.200 C 93.346 113.200,94.293 112.840,94.800 112.400 C 95.307 111.960,95.875 111.600,96.061 111.600 C 96.248 111.600,96.400 111.330,96.400 111.000 C 96.400 110.581,96.822 110.400,97.800 110.400 C 98.682 110.400,99.200 110.208,99.200 109.880 C 99.200 109.595,99.833 109.132,100.606 108.852 C 101.380 108.573,101.909 108.176,101.783 107.972 C 101.655 107.766,102.278 107.600,103.176 107.600 C 104.069 107.600,104.800 107.428,104.800 107.218 C 104.800 106.380,106.875 104.800,107.975 104.800 C 108.602 104.800,109.214 104.540,109.336 104.222 C 109.458 103.904,110.199 103.524,110.983 103.377 C 111.767 103.230,112.525 102.922,112.666 102.693 C 112.816 102.451,112.730 102.396,112.462 102.562 C 112.208 102.719,112.000 102.657,112.000 102.424 C 112.000 102.189,112.794 102.000,113.780 102.000 C 114.963 102.000,115.675 101.794,115.903 101.387 C 116.092 101.051,116.775 100.679,117.421 100.562 C 118.068 100.445,118.742 100.090,118.918 99.774 C 119.096 99.456,119.828 99.200,120.559 99.200 C 121.303 99.200,122.279 98.852,122.800 98.400 C 123.307 97.960,124.126 97.600,124.618 97.600 C 125.111 97.600,125.618 97.330,125.745 97.000 C 125.881 96.644,126.483 96.400,127.225 96.400 C 128.138 96.400,128.531 96.185,128.684 95.600 C 128.865 94.907,129.230 94.800,131.404 94.800 C 133.266 94.800,133.974 94.645,134.145 94.200 C 134.271 93.870,134.786 93.597,135.287 93.594 C 136.372 93.587,137.322 93.053,137.134 92.555 C 137.060 92.360,137.720 92.146,138.600 92.080 C 139.480 92.013,140.392 91.710,140.626 91.405 C 140.860 91.100,141.940 90.788,143.026 90.712 C 145.079 90.568,146.147 90.161,145.827 89.643 C 145.724 89.477,146.564 89.299,147.693 89.247 C 148.886 89.193,149.924 88.919,150.173 88.593 C 150.460 88.215,151.566 88.006,153.554 87.954 C 156.050 87.888,156.537 87.761,156.700 87.138 C 156.864 86.511,157.307 86.400,159.647 86.400 C 161.827 86.400,162.400 86.275,162.400 85.800 C 162.400 85.258,163.457 85.017,165.500 85.093 C 165.775 85.103,166.000 84.940,166.000 84.732 C 166.000 84.523,166.211 84.483,166.468 84.642 C 166.783 84.836,166.852 84.713,166.681 84.266 C 166.459 83.687,166.790 83.592,169.213 83.540 C 172.987 83.459,172.946 83.465,173.400 82.916 C 173.620 82.650,174.925 82.396,176.300 82.351 C 177.675 82.306,178.800 82.108,178.800 81.911 C 178.800 81.714,178.980 81.664,179.200 81.800 C 179.420 81.936,179.600 81.767,179.600 81.424 C 179.600 80.908,180.183 80.800,182.951 80.800 C 185.258 80.800,186.440 80.634,186.745 80.266 C 187.004 79.954,188.232 79.680,189.694 79.607 C 194.517 79.368,195.005 79.320,195.698 79.019 C 196.081 78.853,196.296 78.555,196.174 78.358 C 195.999 78.074,205.943 77.722,207.330 77.963 C 207.511 77.994,207.557 77.854,207.432 77.652 C 207.307 77.449,207.483 77.177,207.823 77.046 C 208.243 76.885,208.346 76.968,208.144 77.305 C 207.911 77.692,207.975 77.696,208.438 77.322 C 208.789 77.038,210.567 76.819,212.814 76.782 C 215.392 76.740,216.901 76.529,217.543 76.123 C 218.225 75.691,218.606 75.646,218.923 75.963 C 219.531 76.571,220.349 76.508,221.057 75.800 C 221.557 75.300,223.257 75.200,231.255 75.200 C 237.469 75.200,241.142 75.045,241.675 74.760 C 242.272 74.440,242.422 74.440,242.225 74.760 C 242.073 75.005,242.218 75.200,242.553 75.200 C 242.883 75.200,243.281 74.992,243.438 74.738 C 243.629 74.429,243.538 74.382,243.162 74.597 C 242.774 74.818,242.724 74.786,243.000 74.492 C 243.266 74.210,249.707 73.998,262.200 73.861 C 282.650 73.636,282.814 73.628,283.400 72.910 C 283.686 72.559,285.826 72.407,290.905 72.376 C 296.145 72.344,298.146 72.196,298.529 71.814 C 298.856 71.486,300.573 71.221,303.182 71.094 C 306.427 70.935,307.394 70.753,307.678 70.246 C 307.961 69.741,308.694 69.600,311.040 69.600 C 312.887 69.600,314.474 69.376,315.169 69.016 C 316.113 68.528,318.272 68.239,322.500 68.034 C 322.885 68.015,323.155 67.775,323.100 67.500 C 323.039 67.194,323.543 66.950,324.400 66.871 C 325.170 66.801,325.980 66.549,326.200 66.313 C 326.479 66.013,326.418 65.979,326.000 66.200 C 325.575 66.425,325.517 66.389,325.803 66.076 C 326.025 65.833,326.983 65.536,327.932 65.417 C 328.881 65.298,329.927 64.930,330.257 64.600 C 330.987 63.870,331.349 63.819,330.965 64.500 C 330.739 64.900,330.790 64.900,331.221 64.500 C 331.518 64.225,332.255 64.000,332.860 64.000 C 333.465 64.000,334.118 63.718,334.312 63.372 C 334.637 62.791,336.020 62.377,337.700 62.358 C 338.085 62.354,338.401 62.136,338.403 61.875 C 338.405 61.614,338.855 61.192,339.404 60.937 C 339.952 60.683,340.301 60.636,340.180 60.833 C 340.058 61.030,340.237 61.084,340.577 60.954 C 340.917 60.823,341.104 60.567,340.991 60.386 C 340.695 59.907,341.434 59.551,342.805 59.512 C 343.524 59.492,344.000 59.263,344.000 58.939 C 344.000 58.456,345.134 58.171,346.200 58.386 C 346.420 58.430,346.467 58.333,346.303 58.170 C 345.902 57.769,346.751 56.800,347.505 56.800 C 347.839 56.800,348.370 56.485,348.686 56.100 C 349.037 55.672,349.147 55.633,348.971 56.000 C 348.737 56.487,348.784 56.506,349.221 56.100 C 349.518 55.825,350.084 55.600,350.480 55.600 C 350.933 55.600,351.200 55.304,351.200 54.800 C 351.200 54.152,351.467 54.000,352.600 54.000 C 353.578 54.000,354.000 53.819,354.000 53.400 C 354.000 53.067,354.356 52.800,354.800 52.800 C 355.333 52.800,355.600 52.533,355.600 52.000 C 355.600 51.418,355.867 51.200,356.576 51.200 C 357.113 51.200,357.671 51.009,357.815 50.775 C 357.960 50.542,358.521 50.182,359.063 49.976 C 359.605 49.770,359.944 49.434,359.818 49.228 C 359.521 48.748,360.068 48.419,361.339 48.313 C 361.959 48.262,362.514 47.868,362.776 47.292 C 363.011 46.777,363.381 46.464,363.597 46.598 C 363.822 46.737,363.889 46.575,363.753 46.221 C 363.610 45.850,363.733 45.595,364.057 45.587 C 364.733 45.572,366.800 43.787,366.800 43.219 C 366.800 42.989,367.058 42.800,367.373 42.800 C 367.688 42.800,368.061 42.437,368.202 41.994 C 368.343 41.551,368.637 41.299,368.856 41.434 C 369.075 41.570,369.353 41.302,369.474 40.840 C 369.594 40.378,369.897 39.995,370.147 39.989 C 370.396 39.983,371.050 39.358,371.600 38.600 C 372.150 37.842,372.813 37.217,373.073 37.211 C 373.333 37.205,373.657 36.849,373.794 36.420 C 373.943 35.949,374.270 35.729,374.620 35.863 C 374.983 36.002,375.200 35.837,375.200 35.424 C 375.200 34.753,377.030 32.800,377.658 32.800 C 377.846 32.800,378.000 32.530,378.000 32.200 C 378.000 31.870,378.258 31.600,378.573 31.600 C 378.888 31.600,379.260 31.240,379.400 30.800 C 379.540 30.360,379.957 29.997,380.327 29.994 C 380.872 29.989,380.893 29.920,380.442 29.634 C 380.011 29.362,380.172 29.132,381.142 28.630 C 381.834 28.272,382.401 27.759,382.401 27.490 C 382.402 27.220,382.951 26.640,383.623 26.200 C 384.310 25.749,384.943 24.920,385.071 24.300 C 385.197 23.695,385.548 23.200,385.850 23.200 C 386.153 23.200,386.400 22.840,386.400 22.400 C 386.400 21.960,386.760 21.240,387.200 20.800 C 387.640 20.360,388.000 19.730,388.000 19.400 C 388.000 19.070,388.258 18.800,388.573 18.800 C 388.888 18.800,389.261 18.437,389.402 17.994 C 389.543 17.551,389.819 17.288,390.017 17.411 C 390.215 17.533,390.483 17.130,390.612 16.516 C 390.742 15.902,391.014 15.130,391.218 14.800 C 391.421 14.470,391.852 13.615,392.174 12.900 C 392.496 12.185,392.921 11.600,393.118 11.600 C 393.315 11.600,393.451 11.105,393.419 10.500 C 393.363 9.419,393.310 9.397,390.276 9.200 C 388.579 9.090,387.197 8.831,387.206 8.625 C 387.234 7.975,386.325 7.945,361.621 7.766 C 342.987 7.631,337.371 7.477,337.135 7.095 C 336.647 6.305,247.948 6.183,247.397 6.972 " stroke="none" fill="#fbad1c" fill-rule="evenodd"></path><path id="path1" d="M246.571 6.991 C 245.894 7.503,245.883 7.576,246.476 7.587 C 246.848 7.594,247.271 7.408,247.416 7.173 C 247.852 6.468,247.393 6.370,246.571 6.991 M360.700 7.882 C 361.195 7.978,362.005 7.978,362.500 7.882 C 362.995 7.787,362.590 7.709,361.600 7.709 C 360.610 7.709,360.205 7.787,360.700 7.882 M365.505 7.883 C 366.002 7.979,366.722 7.975,367.105 7.875 C 367.487 7.775,367.080 7.696,366.200 7.701 C 365.320 7.705,365.007 7.787,365.505 7.883 M376.500 7.876 C 376.885 7.976,377.515 7.976,377.900 7.876 C 378.285 7.775,377.970 7.693,377.200 7.693 C 376.430 7.693,376.115 7.775,376.500 7.876 M225.045 8.627 C 224.935 8.912,225.130 9.081,225.506 9.026 C 225.864 8.973,226.216 8.751,226.289 8.532 C 226.483 7.950,225.269 8.043,225.045 8.627 M392.405 12.391 C 392.060 13.036,392.094 13.139,392.588 12.949 C 392.922 12.821,393.105 12.570,392.995 12.392 C 392.885 12.214,393.021 11.977,393.298 11.866 C 393.674 11.714,393.678 11.655,393.314 11.632 C 393.047 11.614,392.638 11.956,392.405 12.391 M120.300 31.278 C 119.399 32.208,119.923 32.195,121.142 31.258 C 121.666 30.855,121.843 30.538,121.542 30.544 C 121.244 30.551,120.685 30.881,120.300 31.278 M105.779 37.966 C 105.903 38.167,105.779 38.423,105.502 38.534 C 105.199 38.656,105.278 38.749,105.700 38.768 C 106.085 38.786,106.400 38.530,106.400 38.200 C 106.400 37.870,106.209 37.600,105.976 37.600 C 105.743 37.600,105.655 37.765,105.779 37.966 M102.283 39.612 C 101.911 40.045,101.764 40.400,101.955 40.400 C 102.395 40.400,103.374 39.241,103.136 39.002 C 103.038 38.904,102.654 39.179,102.283 39.612 M96.800 42.400 C 96.293 42.840,96.057 43.200,96.277 43.200 C 96.496 43.200,97.002 42.840,97.400 42.400 C 97.798 41.960,98.034 41.600,97.923 41.600 C 97.813 41.600,97.307 41.960,96.800 42.400 M346.162 57.658 C 345.404 58.512,345.405 58.514,346.300 58.044 C 346.795 57.784,347.200 57.398,347.200 57.186 C 347.200 56.618,347.009 56.705,346.162 57.658 M330.412 64.384 C 330.088 64.589,329.978 64.901,330.166 65.078 C 330.355 65.255,330.590 65.174,330.689 64.898 C 330.788 64.621,331.061 64.514,331.296 64.659 C 331.549 64.816,331.607 64.735,331.438 64.462 C 331.099 63.914,331.150 63.917,330.412 64.384 M217.800 76.000 C 217.664 76.220,217.934 76.400,218.400 76.400 C 218.866 76.400,219.136 76.220,219.000 76.000 C 218.864 75.780,218.594 75.600,218.400 75.600 C 218.206 75.600,217.936 75.780,217.800 76.000 M207.424 77.333 C 206.792 77.795,206.781 77.867,207.347 77.867 C 207.706 77.867,208.000 77.706,208.000 77.510 C 208.000 77.313,208.208 77.281,208.462 77.438 C 208.748 77.615,208.815 77.548,208.638 77.262 C 208.284 76.689,208.307 76.688,207.424 77.333 M186.800 80.200 C 186.392 80.691,186.420 80.800,186.951 80.800 C 187.308 80.800,187.600 80.530,187.600 80.200 C 187.600 79.870,187.532 79.600,187.449 79.600 C 187.366 79.600,187.074 79.870,186.800 80.200 M150.267 88.267 C 149.836 88.697,149.959 89.067,150.533 89.067 C 150.827 89.067,151.067 88.827,151.067 88.533 C 151.067 87.959,150.697 87.836,150.267 88.267 M330.683 109.450 C 330.371 109.762,330.801 110.800,331.243 110.800 C 331.700 110.800,331.710 109.715,331.256 109.434 C 331.066 109.317,330.809 109.324,330.683 109.450 M29.232 114.339 C 28.579 115.560,28.714 115.900,29.441 114.863 C 29.793 114.360,29.988 113.854,29.873 113.740 C 29.759 113.625,29.470 113.895,29.232 114.339 M283.105 115.083 C 283.602 115.179,284.322 115.175,284.705 115.075 C 285.087 114.975,284.680 114.896,283.800 114.901 C 282.920 114.905,282.607 114.987,283.105 115.083 M271.505 116.283 C 272.002 116.379,272.722 116.375,273.105 116.275 C 273.487 116.175,273.080 116.096,272.200 116.101 C 271.320 116.105,271.007 116.187,271.505 116.283 M268.000 117.000 C 267.722 117.335,267.679 117.600,267.902 117.600 C 268.122 117.600,268.526 117.330,268.800 117.000 C 269.078 116.665,269.121 116.400,268.898 116.400 C 268.678 116.400,268.274 116.670,268.000 117.000 M215.900 119.089 C 216.615 119.178,217.785 119.178,218.500 119.089 C 219.215 119.001,218.630 118.928,217.200 118.928 C 215.770 118.928,215.185 119.001,215.900 119.089 M176.077 122.656 C 175.721 123.036,175.797 123.135,176.408 123.089 C 176.844 123.057,177.203 122.843,177.206 122.615 C 177.209 122.387,177.364 122.440,177.550 122.734 C 177.823 123.164,177.935 123.146,178.130 122.639 C 178.424 121.871,176.797 121.885,176.077 122.656 M375.054 123.522 C 374.474 124.358,374.000 125.237,374.000 125.475 C 374.000 125.712,373.640 126.001,373.200 126.116 C 372.617 126.268,372.400 126.662,372.400 127.563 C 372.400 128.396,372.204 128.800,371.800 128.800 C 371.470 128.800,371.200 129.070,371.200 129.400 C 371.200 129.730,370.840 130.360,370.400 130.800 C 369.952 131.248,369.600 132.133,369.600 132.813 C 369.600 133.521,369.351 134.121,369.000 134.255 C 368.670 134.382,368.400 134.826,368.400 135.243 C 368.400 135.659,368.196 136.000,367.946 136.000 C 366.850 136.000,365.600 138.036,365.600 139.821 C 365.600 141.333,365.480 141.600,364.800 141.600 C 364.356 141.600,364.000 141.867,364.000 142.200 C 364.000 142.530,363.730 142.800,363.400 142.800 C 363.064 142.800,362.800 143.157,362.800 143.613 C 362.800 144.059,362.530 144.529,362.200 144.655 C 361.870 144.782,361.600 145.094,361.600 145.349 C 361.600 145.603,361.240 146.484,360.800 147.304 C 360.360 148.125,360.000 149.068,360.000 149.399 C 360.000 149.733,359.645 150.000,359.200 150.000 C 358.756 150.000,358.400 150.267,358.400 150.600 C 358.400 150.930,358.130 151.200,357.800 151.200 C 357.470 151.200,357.200 151.539,357.200 151.953 C 357.200 152.370,356.843 152.800,356.400 152.916 C 355.817 153.068,355.600 153.462,355.600 154.363 C 355.600 155.196,355.404 155.600,355.000 155.600 C 354.667 155.600,354.400 155.956,354.400 156.400 C 354.400 156.840,354.175 157.203,353.900 157.207 C 353.290 157.215,351.600 158.942,351.600 159.556 C 351.600 159.800,351.342 160.000,351.027 160.000 C 350.712 160.000,350.340 160.360,350.200 160.800 C 350.060 161.240,349.800 161.600,349.622 161.600 C 349.443 161.600,349.073 162.140,348.800 162.800 C 348.527 163.460,348.055 164.000,347.751 164.000 C 347.448 164.000,347.200 164.360,347.200 164.800 C 347.200 165.244,346.933 165.600,346.600 165.600 C 346.270 165.600,346.000 165.827,346.000 166.104 C 346.000 166.381,345.640 166.832,345.200 167.107 C 344.748 167.390,344.400 168.040,344.400 168.603 C 344.400 169.202,344.171 169.600,343.827 169.600 C 343.512 169.600,343.140 169.960,343.000 170.400 C 342.860 170.840,342.488 171.200,342.173 171.200 C 341.858 171.200,341.600 171.449,341.600 171.753 C 341.600 172.058,341.240 172.401,340.800 172.516 C 340.360 172.631,340.000 173.012,340.000 173.363 C 340.000 173.713,339.730 174.000,339.400 174.000 C 339.070 174.000,338.800 174.270,338.800 174.600 C 338.800 174.930,338.513 175.200,338.163 175.200 C 337.812 175.200,337.431 175.560,337.316 176.000 C 337.201 176.440,336.858 176.800,336.553 176.800 C 336.249 176.800,336.000 177.070,336.000 177.400 C 336.000 177.730,335.713 178.000,335.363 178.000 C 335.012 178.000,334.631 178.360,334.516 178.800 C 334.380 179.321,333.970 179.600,333.341 179.600 C 332.810 179.600,332.271 179.870,332.145 180.200 C 332.018 180.530,331.647 180.800,331.320 180.800 C 330.993 180.800,330.631 181.160,330.516 181.600 C 330.400 182.043,329.970 182.400,329.553 182.400 C 329.139 182.400,328.800 182.670,328.800 183.000 C 328.800 183.330,328.530 183.600,328.200 183.600 C 327.867 183.600,327.600 183.956,327.600 184.400 C 327.600 184.962,327.333 185.201,326.700 185.202 C 326.205 185.203,325.115 185.833,324.278 186.602 C 323.440 187.371,322.585 188.000,322.378 188.000 C 322.170 188.000,322.000 188.258,322.000 188.573 C 322.000 188.888,321.640 189.260,321.200 189.400 C 320.760 189.540,320.400 189.912,320.400 190.227 C 320.400 190.542,320.130 190.800,319.800 190.800 C 319.470 190.800,319.200 191.070,319.200 191.400 C 319.200 191.804,318.796 192.000,317.963 192.000 C 317.062 192.000,316.668 192.217,316.516 192.800 C 316.400 193.243,315.970 193.600,315.553 193.600 C 315.139 193.600,314.800 193.870,314.800 194.200 C 314.800 194.530,314.530 194.800,314.200 194.800 C 313.870 194.800,313.240 195.160,312.800 195.600 C 312.360 196.040,311.653 196.400,311.229 196.400 C 310.804 196.400,310.187 196.670,309.857 197.000 C 309.527 197.330,309.066 197.600,308.832 197.600 C 308.598 197.600,308.182 197.960,307.907 198.400 C 307.632 198.840,307.181 199.200,306.904 199.200 C 306.627 199.200,306.400 199.462,306.400 199.782 C 306.400 200.130,305.838 200.469,305.000 200.626 C 304.198 200.777,303.600 201.126,303.600 201.445 C 303.600 201.799,303.152 202.000,302.363 202.000 C 301.462 202.000,301.068 202.217,300.916 202.800 C 300.800 203.243,300.370 203.600,299.953 203.600 C 299.539 203.600,299.200 203.870,299.200 204.200 C 299.200 204.616,298.781 204.800,297.833 204.800 C 296.071 204.800,295.200 205.145,295.200 205.843 C 295.200 206.213,294.730 206.400,293.800 206.400 C 292.822 206.400,292.400 206.581,292.400 207.000 C 292.400 207.330,292.052 207.600,291.627 207.600 C 291.202 207.600,290.740 207.960,290.600 208.400 C 290.396 209.041,289.995 209.200,288.573 209.200 C 287.264 209.200,286.800 209.357,286.800 209.800 C 286.800 210.133,286.444 210.400,286.000 210.400 C 285.560 210.400,284.840 210.760,284.400 211.200 C 283.956 211.644,283.067 212.000,282.400 212.000 C 281.600 212.000,281.200 212.200,281.200 212.600 C 281.200 213.033,280.756 213.200,279.600 213.200 C 278.533 213.200,277.733 213.467,277.200 214.000 C 276.756 214.444,275.867 214.800,275.200 214.800 C 274.400 214.800,274.000 215.000,274.000 215.400 C 274.000 215.853,273.511 216.000,272.003 216.000 C 270.440 216.000,269.898 216.174,269.507 216.800 C 269.135 217.397,268.574 217.600,267.304 217.600 C 266.056 217.600,265.600 217.761,265.600 218.200 C 265.600 218.644,265.134 218.800,263.803 218.800 C 262.440 218.800,261.886 218.993,261.507 219.600 C 261.096 220.259,260.574 220.400,258.547 220.400 C 256.728 220.400,256.025 220.557,255.855 221.000 C 255.699 221.407,255.062 221.600,253.875 221.600 C 252.632 221.600,251.914 221.832,251.400 222.400 C 250.794 223.069,250.168 223.200,247.567 223.200 C 245.484 223.200,244.278 223.379,243.915 223.742 C 243.596 224.061,242.104 224.365,240.284 224.482 C 238.200 224.616,236.958 224.895,236.466 225.340 C 235.894 225.858,234.901 226.000,231.856 226.000 C 228.775 226.000,227.927 226.124,227.745 226.600 C 227.557 227.089,226.590 227.200,222.520 227.200 C 217.862 227.200,217.511 227.254,217.316 228.000 C 217.115 228.767,216.770 228.800,208.953 228.800 C 202.879 228.800,200.800 228.922,200.800 229.280 C 200.800 229.653,200.693 229.653,200.320 229.280 C 199.654 228.614,197.308 228.678,196.919 229.373 C 196.659 229.838,194.824 229.969,187.067 230.073 C 178.539 230.187,177.480 230.274,177.023 230.900 C 176.577 231.511,175.772 231.600,170.676 231.600 C 166.191 231.600,164.766 231.725,164.520 232.142 C 164.314 232.490,163.059 232.767,161.012 232.918 C 158.795 233.080,157.686 233.341,157.368 233.776 C 157.037 234.229,156.209 234.400,154.345 234.400 C 152.844 234.400,151.450 234.625,150.989 234.941 C 150.555 235.238,149.030 235.599,147.600 235.742 C 146.012 235.901,144.827 236.235,144.556 236.601 C 144.312 236.931,143.569 237.200,142.905 237.200 C 142.241 237.200,141.474 237.470,141.200 237.800 C 140.926 238.130,140.319 238.402,139.851 238.405 C 138.369 238.415,137.200 238.874,137.200 239.447 C 137.200 239.836,136.664 240.000,135.387 240.000 C 134.157 240.000,133.502 240.190,133.348 240.591 C 133.212 240.945,132.331 241.288,131.160 241.443 C 129.893 241.611,129.200 241.897,129.200 242.252 C 129.200 242.614,128.714 242.800,127.763 242.800 C 126.662 242.800,126.276 242.987,126.116 243.600 C 125.967 244.169,125.570 244.400,124.741 244.400 C 124.073 244.400,123.476 244.657,123.345 245.000 C 123.211 245.348,122.613 245.600,121.920 245.600 C 121.062 245.600,120.666 245.825,120.516 246.400 C 120.401 246.840,119.981 247.200,119.582 247.200 C 119.183 247.200,118.587 247.470,118.257 247.800 C 117.927 248.130,117.299 248.400,116.861 248.400 C 115.642 248.400,114.800 248.826,114.800 249.443 C 114.800 249.749,114.530 250.000,114.200 250.000 C 113.870 250.000,113.600 250.270,113.600 250.600 C 113.600 251.004,113.196 251.200,112.363 251.200 C 111.462 251.200,111.068 251.417,110.916 252.000 C 110.800 252.443,110.370 252.800,109.953 252.800 C 109.539 252.800,109.200 253.070,109.200 253.400 C 109.200 253.730,108.930 254.000,108.600 254.000 C 108.270 254.000,107.671 254.329,107.269 254.731 C 106.868 255.132,106.238 255.577,105.869 255.718 C 105.501 255.859,105.200 256.148,105.200 256.360 C 105.200 256.573,104.840 256.860,104.400 257.000 C 103.960 257.140,103.600 257.512,103.600 257.827 C 103.600 258.142,103.324 258.400,102.987 258.400 C 102.651 258.400,102.271 258.670,102.145 259.000 C 102.018 259.330,101.664 259.600,101.357 259.600 C 101.051 259.600,100.800 259.960,100.800 260.400 C 100.800 260.915,100.533 261.200,100.051 261.200 C 99.639 261.200,98.764 261.830,98.106 262.600 C 97.448 263.370,96.707 264.000,96.458 264.000 C 96.210 264.000,95.782 264.360,95.507 264.800 C 95.232 265.240,94.781 265.600,94.504 265.600 C 94.227 265.600,94.000 265.870,94.000 266.200 C 94.000 266.530,93.796 266.800,93.546 266.800 C 93.134 266.800,91.200 268.616,91.200 269.002 C 91.200 269.091,90.795 269.587,90.300 270.105 C 88.199 272.303,86.800 274.115,86.800 274.639 C 86.800 274.947,86.440 275.200,86.000 275.200 C 85.467 275.200,85.200 275.467,85.200 276.000 C 85.200 276.444,84.933 276.800,84.600 276.800 C 84.270 276.800,84.000 277.070,84.000 277.400 C 84.000 277.730,83.713 278.000,83.363 278.000 C 83.012 278.000,82.631 278.360,82.516 278.800 C 82.401 279.240,82.058 279.600,81.753 279.600 C 81.449 279.600,81.200 279.827,81.200 280.104 C 81.200 280.381,80.840 280.832,80.400 281.107 C 79.960 281.382,79.600 281.783,79.600 281.999 C 79.600 282.394,78.793 283.494,77.500 284.860 C 77.115 285.267,76.800 285.780,76.800 286.000 C 76.800 286.220,76.538 286.400,76.218 286.400 C 75.870 286.400,75.531 286.962,75.374 287.800 C 75.223 288.602,74.874 289.200,74.555 289.200 C 74.250 289.200,74.000 289.560,74.000 290.000 C 74.000 290.440,73.829 290.800,73.621 290.800 C 73.152 290.800,71.200 292.576,71.200 293.002 C 71.200 293.172,70.918 293.518,70.573 293.770 C 70.229 294.022,69.845 294.987,69.721 295.914 C 69.580 296.964,69.288 297.600,68.947 297.600 C 68.646 297.600,68.400 297.960,68.400 298.400 C 68.400 298.840,68.151 299.200,67.847 299.200 C 66.937 299.200,66.364 303.598,67.043 305.367 C 67.370 306.219,70.331 306.246,70.655 305.400 C 70.830 304.946,71.565 304.800,73.680 304.800 C 76.138 304.800,76.500 304.704,76.684 304.000 C 76.872 303.281,77.230 303.200,80.218 303.200 C 82.532 303.200,83.713 303.030,84.102 302.641 C 84.481 302.262,85.914 302.037,88.563 301.941 C 91.710 301.827,92.564 301.665,92.977 301.100 C 93.421 300.491,94.215 300.400,99.055 300.400 C 103.108 300.400,104.837 300.251,105.411 299.854 C 105.987 299.455,108.350 299.255,114.163 299.112 C 121.348 298.935,122.179 298.843,122.673 298.168 C 123.127 297.547,123.350 297.502,123.991 297.902 C 124.478 298.206,124.852 298.239,125.005 297.992 C 125.153 297.752,129.425 297.600,136.036 297.600 C 145.257 297.600,146.859 297.513,147.055 297.000 C 147.252 296.487,148.887 296.400,158.376 296.400 C 168.825 296.400,173.600 296.030,174.580 295.144 C 174.789 294.955,180.761 294.800,187.851 294.800 C 198.777 294.800,200.834 294.709,201.343 294.200 C 201.821 293.722,203.124 293.600,207.771 293.600 C 213.067 293.600,213.673 293.527,214.400 292.800 C 215.118 292.082,215.733 292.000,220.413 292.000 C 224.420 292.000,225.673 291.875,225.832 291.460 C 225.983 291.066,227.417 290.848,231.120 290.653 C 234.906 290.454,236.313 290.235,236.644 289.793 C 236.973 289.354,237.934 289.200,240.357 289.200 C 242.772 289.200,243.681 289.055,243.838 288.646 C 243.989 288.251,245.236 288.011,248.196 287.810 C 251.193 287.605,252.402 287.371,252.559 286.963 C 252.711 286.566,253.477 286.400,255.159 286.400 C 256.716 286.400,257.745 286.197,258.127 285.816 C 258.449 285.494,259.913 285.108,261.385 284.957 C 262.856 284.807,264.303 284.440,264.601 284.142 C 264.899 283.844,265.876 283.600,266.771 283.600 C 267.867 283.600,268.662 283.338,269.200 282.800 C 269.836 282.164,270.533 282.000,272.600 282.000 C 274.644 282.000,275.200 281.872,275.200 281.400 C 275.200 280.931,275.747 280.799,277.700 280.795 C 280.746 280.788,282.000 280.484,282.000 279.753 C 282.000 279.336,282.676 279.200,284.757 279.200 C 286.839 279.200,287.571 279.053,287.745 278.600 C 287.889 278.223,288.501 278.000,289.387 278.000 C 290.267 278.000,291.102 277.698,291.600 277.200 C 292.165 276.635,292.933 276.400,294.213 276.400 C 295.455 276.400,296.098 276.211,296.255 275.800 C 296.408 275.402,297.043 275.198,298.143 275.195 C 300.381 275.187,301.600 274.820,301.600 274.153 C 301.600 273.779,302.093 273.600,303.124 273.600 C 303.961 273.600,304.996 273.336,305.424 273.013 C 305.851 272.690,306.802 272.420,307.537 272.413 C 308.532 272.403,308.928 272.195,309.084 271.600 C 309.257 270.938,309.630 270.800,311.247 270.800 C 312.716 270.800,313.200 270.651,313.200 270.200 C 313.200 269.745,313.693 269.600,315.237 269.600 C 316.938 269.600,317.309 269.468,317.484 268.800 C 317.653 268.152,318.030 268.000,319.459 268.000 C 320.660 268.000,321.299 267.808,321.455 267.400 C 321.599 267.025,322.210 266.800,323.080 266.800 C 324.138 266.800,324.525 266.607,324.684 266.000 C 324.857 265.338,325.230 265.200,326.847 265.200 C 328.316 265.200,328.800 265.051,328.800 264.600 C 328.800 264.181,329.222 264.000,330.200 264.000 C 331.067 264.000,331.905 263.695,332.400 263.200 C 332.840 262.760,333.721 262.400,334.357 262.400 C 334.994 262.400,335.609 262.153,335.725 261.850 C 335.841 261.548,336.771 261.175,337.791 261.022 C 338.818 260.868,339.745 260.489,339.866 260.172 C 339.987 259.857,340.426 259.600,340.843 259.600 C 341.259 259.600,341.600 259.330,341.600 259.000 C 341.600 258.555,342.068 258.400,343.413 258.400 C 344.908 258.400,345.295 258.242,345.624 257.500 C 345.959 256.740,345.989 256.810,345.811 257.950 C 345.695 258.693,345.600 259.728,345.600 260.250 C 345.600 260.828,345.365 261.200,345.000 261.200 C 344.670 261.200,344.400 261.451,344.400 261.757 C 344.400 262.064,344.147 262.412,343.838 262.530 C 343.528 262.649,343.157 263.283,343.013 263.940 C 342.869 264.596,342.492 265.233,342.176 265.354 C 341.857 265.476,341.600 266.095,341.600 266.741 C 341.600 267.570,341.369 267.967,340.800 268.116 C 340.360 268.231,340.000 268.612,340.000 268.963 C 340.000 269.313,339.730 269.600,339.400 269.600 C 339.067 269.600,338.800 269.956,338.800 270.400 C 338.800 270.840,338.538 271.200,338.218 271.200 C 337.870 271.200,337.531 271.762,337.374 272.600 C 337.223 273.402,336.874 274.000,336.555 274.000 C 336.250 274.000,336.000 274.270,336.000 274.600 C 336.000 274.930,335.742 275.200,335.427 275.200 C 335.112 275.200,334.740 275.560,334.600 276.000 C 334.460 276.440,334.088 276.800,333.773 276.800 C 333.458 276.800,333.200 277.076,333.200 277.413 C 333.200 277.749,332.930 278.129,332.600 278.255 C 332.270 278.382,332.000 278.736,332.000 279.043 C 332.000 279.349,331.775 279.603,331.500 279.607 C 330.890 279.615,329.200 281.342,329.200 281.956 C 329.200 282.200,328.996 282.400,328.746 282.400 C 328.212 282.400,326.400 284.270,326.400 284.821 C 326.400 285.029,326.040 285.200,325.600 285.200 C 325.160 285.200,324.800 285.451,324.800 285.757 C 324.800 286.064,324.530 286.418,324.200 286.545 C 323.870 286.671,323.600 287.051,323.600 287.387 C 323.600 287.724,323.339 288.000,323.020 288.000 C 322.701 288.000,322.296 288.239,322.120 288.530 C 321.944 288.822,321.485 289.176,321.100 289.318 C 320.715 289.459,320.400 289.851,320.400 290.187 C 320.400 290.524,320.207 290.800,319.971 290.800 C 319.736 290.800,319.273 291.070,318.943 291.400 C 318.613 291.730,317.906 292.000,317.371 292.000 C 316.667 292.000,316.400 292.220,316.400 292.800 C 316.400 293.333,316.133 293.600,315.600 293.600 C 315.156 293.600,314.800 293.867,314.800 294.200 C 314.800 294.530,314.551 294.800,314.247 294.800 C 313.942 294.800,313.599 295.160,313.484 295.600 C 313.342 296.144,312.938 296.400,312.225 296.400 C 311.647 296.400,311.078 296.652,310.960 296.961 C 310.841 297.269,310.397 297.612,309.972 297.723 C 309.548 297.834,309.200 298.212,309.200 298.563 C 309.200 299.006,308.830 299.200,307.987 299.200 C 307.279 299.200,306.679 299.449,306.545 299.800 C 306.418 300.130,306.076 300.400,305.784 300.400 C 305.493 300.400,305.140 300.760,305.000 301.200 C 304.825 301.751,304.395 302.000,303.616 302.000 C 302.980 302.000,302.385 302.263,302.255 302.600 C 302.129 302.930,301.658 303.200,301.209 303.200 C 300.760 303.200,300.084 303.560,299.707 304.000 C 299.330 304.440,298.792 304.800,298.511 304.800 C 298.230 304.800,298.000 305.046,298.000 305.347 C 298.000 305.688,297.364 305.980,296.314 306.121 C 295.387 306.245,294.422 306.629,294.170 306.973 C 293.918 307.318,293.501 307.600,293.243 307.600 C 292.986 307.600,292.671 307.870,292.545 308.200 C 292.418 308.530,291.988 308.800,291.590 308.800 C 290.438 308.800,289.600 309.239,289.600 309.843 C 289.600 310.213,289.130 310.400,288.200 310.400 C 287.272 310.400,286.800 310.587,286.800 310.955 C 286.800 311.274,286.202 311.623,285.400 311.774 C 284.562 311.931,284.000 312.270,284.000 312.618 C 284.000 313.041,283.509 313.200,282.203 313.200 C 280.840 313.200,280.286 313.393,279.907 314.000 C 279.574 314.534,278.974 314.800,278.104 314.800 C 277.212 314.800,276.800 314.989,276.800 315.400 C 276.800 315.773,276.423 316.000,275.803 316.000 C 275.240 316.000,274.590 316.348,274.307 316.800 C 273.921 317.418,273.374 317.600,271.904 317.600 C 270.478 317.600,270.000 317.751,270.000 318.200 C 270.000 318.622,269.574 318.800,268.563 318.800 C 267.462 318.800,267.076 318.987,266.916 319.600 C 266.740 320.272,266.370 320.400,264.602 320.400 C 263.220 320.400,262.327 320.606,262.000 321.000 C 261.726 321.330,260.986 321.600,260.354 321.600 C 259.640 321.600,259.018 321.902,258.707 322.400 C 258.296 323.059,257.774 323.200,255.747 323.200 C 253.928 323.200,253.225 323.357,253.055 323.800 C 252.912 324.173,252.303 324.400,251.445 324.400 C 249.671 324.400,248.800 324.743,248.800 325.443 C 248.800 325.856,248.192 326.000,246.449 326.000 C 244.847 326.000,243.939 326.191,243.600 326.600 C 243.317 326.940,242.445 327.200,241.584 327.200 C 239.677 327.200,238.800 327.528,238.800 328.243 C 238.800 328.662,238.154 328.800,236.187 328.800 C 234.234 328.800,233.517 328.951,233.345 329.400 C 233.171 329.853,232.439 330.000,230.357 330.000 C 228.133 330.000,227.445 330.155,226.800 330.800 C 226.196 331.404,225.467 331.600,223.829 331.600 C 222.432 331.600,221.443 331.814,221.057 332.200 C 220.638 332.619,219.613 332.800,217.661 332.800 C 214.513 332.800,213.600 333.034,213.600 333.843 C 213.600 334.282,212.755 334.400,209.620 334.400 C 206.687 334.400,205.556 334.543,205.320 334.944 C 205.088 335.339,203.581 335.548,199.823 335.705 C 195.719 335.877,194.549 336.055,194.179 336.561 C 193.802 337.076,192.896 337.200,189.499 337.200 C 186.123 337.200,185.240 337.319,185.055 337.800 C 184.864 338.297,183.771 338.400,178.663 338.400 C 171.863 338.400,170.000 338.626,170.000 339.450 C 170.000 339.908,167.074 340.000,152.449 340.000 C 138.134 340.000,134.815 340.100,134.446 340.544 C 134.086 340.979,130.999 341.128,119.147 341.283 C 105.884 341.457,104.261 341.549,103.930 342.139 C 103.619 342.696,102.812 342.800,98.823 342.800 C 95.184 342.800,94.037 342.927,93.876 343.347 C 93.721 343.749,92.475 343.944,89.187 344.079 C 85.546 344.229,84.638 344.389,84.334 344.932 C 84.059 345.424,83.406 345.600,81.857 345.600 C 80.626 345.600,79.431 345.844,78.976 346.187 C 78.549 346.510,77.660 346.782,77.000 346.792 C 74.682 346.825,72.800 347.300,72.800 347.852 C 72.800 348.232,72.264 348.400,71.049 348.400 C 70.039 348.400,69.102 348.636,68.835 348.958 C 68.580 349.265,67.748 349.633,66.986 349.776 C 66.159 349.931,65.600 350.271,65.600 350.618 C 65.600 351.049,65.085 351.200,63.614 351.200 C 62.038 351.200,61.540 351.365,61.200 352.000 C 60.901 352.560,60.362 352.800,59.410 352.800 C 58.660 352.800,57.929 352.991,57.785 353.225 C 57.640 353.458,57.090 353.814,56.561 354.015 C 56.033 354.216,55.600 354.655,55.600 354.990 C 55.600 355.417,55.192 355.600,54.243 355.600 C 53.405 355.600,52.797 355.830,52.655 356.200 C 52.529 356.530,51.971 356.800,51.416 356.800 C 50.840 356.800,50.192 357.143,49.907 357.600 C 49.604 358.086,48.974 358.400,48.304 358.400 C 47.589 358.400,47.200 358.612,47.200 359.000 C 47.200 359.330,46.936 359.600,46.614 359.600 C 46.292 359.600,45.835 359.960,45.600 360.400 C 45.350 360.868,44.762 361.200,44.186 361.200 C 43.576 361.200,43.200 361.429,43.200 361.800 C 43.200 362.204,42.796 362.400,41.963 362.400 C 41.062 362.400,40.668 362.617,40.516 363.200 C 40.400 363.643,39.970 364.000,39.553 364.000 C 39.139 364.000,38.800 364.270,38.800 364.600 C 38.800 364.930,38.513 365.200,38.163 365.200 C 37.812 365.200,37.431 365.560,37.316 366.000 C 37.170 366.558,36.770 366.800,35.996 366.800 C 35.378 366.800,34.784 367.066,34.655 367.400 C 34.529 367.730,34.261 368.000,34.061 368.000 C 33.406 368.000,21.200 379.655,21.200 380.282 C 21.200 380.393,20.750 380.839,20.200 381.271 C 19.650 381.704,19.200 382.405,19.200 382.829 C 19.200 383.333,18.923 383.600,18.400 383.600 C 17.960 383.600,17.600 383.851,17.600 384.157 C 17.600 384.464,17.330 384.818,17.000 384.945 C 16.670 385.071,16.400 385.451,16.400 385.787 C 16.400 386.124,16.040 386.760,15.600 387.200 C 15.160 387.640,14.800 388.270,14.800 388.600 C 14.800 388.930,14.551 389.200,14.247 389.200 C 13.942 389.200,13.599 389.560,13.484 390.000 C 13.369 390.440,12.988 390.800,12.637 390.800 C 12.287 390.800,12.000 391.051,12.000 391.357 C 12.000 391.664,11.747 392.012,11.438 392.130 C 11.128 392.249,10.754 392.898,10.606 393.573 C 10.458 394.248,10.181 394.800,9.990 394.800 C 9.638 394.800,8.818 396.108,7.920 398.100 C 7.648 398.705,7.194 399.200,6.912 399.200 C 6.631 399.200,6.400 399.470,6.400 399.800 C 6.400 400.130,6.149 400.400,5.843 400.400 C 4.880 400.400,4.461 402.893,5.052 405.100 L 5.293 406.000 17.204 406.000 C 27.535 406.000,29.146 406.081,29.350 406.613 C 29.493 406.987,30.094 407.230,30.892 407.237 C 61.735 407.491,72.629 407.724,72.884 408.136 C 73.370 408.923,137.498 409.017,138.366 408.231 C 138.917 407.732,141.137 407.614,151.746 407.516 C 163.318 407.411,164.511 407.337,164.977 406.700 C 165.433 406.076,166.314 406.000,173.144 406.000 C 179.360 406.000,180.800 405.897,180.800 405.452 C 180.800 405.017,182.175 404.866,187.454 404.722 C 193.078 404.568,194.184 404.436,194.598 403.870 C 194.994 403.329,195.785 403.200,198.716 403.200 C 201.232 403.200,202.509 403.034,202.884 402.658 C 203.255 402.288,204.968 402.053,208.318 401.915 C 212.088 401.760,213.378 401.563,213.937 401.057 C 214.467 400.578,215.430 400.400,217.503 400.400 C 219.447 400.400,220.525 400.218,220.921 399.821 C 221.292 399.451,222.702 399.168,224.847 399.033 C 227.201 398.886,228.326 398.642,228.641 398.212 C 228.974 397.756,229.862 397.600,232.130 397.600 C 234.762 397.600,235.229 397.492,235.600 396.800 C 235.931 396.182,236.438 396.000,237.827 396.000 C 239.056 396.000,239.698 395.810,239.855 395.400 C 240.029 394.947,240.761 394.800,242.843 394.800 C 245.333 394.800,245.600 394.723,245.600 394.000 C 245.600 393.306,245.867 393.200,247.613 393.200 C 249.032 393.200,249.693 393.023,249.855 392.600 C 250.027 392.152,250.743 392.000,252.680 392.000 C 254.938 392.000,255.302 391.896,255.484 391.200 C 255.656 390.541,256.030 390.400,257.604 390.400 C 258.933 390.400,259.584 390.217,259.745 389.800 C 259.903 389.386,260.549 389.200,261.825 389.200 C 263.338 389.200,263.713 389.055,263.884 388.400 C 264.039 387.806,264.430 387.600,265.398 387.600 C 266.115 387.600,266.926 387.330,267.200 387.000 C 267.490 386.651,268.362 386.400,269.286 386.400 C 270.538 386.400,270.919 386.231,271.084 385.600 C 271.257 384.938,271.630 384.800,273.247 384.800 C 274.716 384.800,275.200 384.651,275.200 384.200 C 275.200 383.813,275.591 383.598,276.300 383.595 C 278.013 383.586,279.200 383.160,279.200 382.553 C 279.200 382.174,279.704 382.000,280.800 382.000 C 281.956 382.000,282.400 381.833,282.400 381.400 C 282.400 381.027,282.777 380.800,283.397 380.800 C 283.960 380.800,284.610 380.452,284.893 380.000 C 285.226 379.466,285.826 379.200,286.696 379.200 C 287.588 379.200,288.000 379.011,288.000 378.600 C 288.000 378.181,288.422 378.000,289.400 378.000 C 290.533 378.000,290.800 377.848,290.800 377.200 C 290.800 376.552,291.067 376.400,292.200 376.400 C 293.178 376.400,293.600 376.219,293.600 375.800 C 293.600 375.396,294.004 375.200,294.837 375.200 C 295.738 375.200,296.132 374.983,296.284 374.400 C 296.433 373.831,296.830 373.600,297.659 373.600 C 298.327 373.600,298.924 373.343,299.055 373.000 C 299.189 372.652,299.787 372.400,300.480 372.400 C 301.338 372.400,301.734 372.175,301.884 371.600 C 302.000 371.157,302.430 370.800,302.847 370.800 C 303.261 370.800,303.600 370.544,303.600 370.232 C 303.600 369.919,304.140 369.545,304.800 369.400 C 305.460 369.255,306.000 368.881,306.000 368.568 C 306.000 368.199,306.436 368.000,307.244 368.000 C 308.518 368.000,310.380 366.640,310.393 365.700 C 310.397 365.425,310.738 365.200,311.151 365.200 C 311.564 365.200,312.126 364.930,312.400 364.600 C 312.674 364.270,313.212 364.000,313.595 364.000 C 313.978 364.000,314.721 363.671,315.246 363.268 C 315.771 362.866,316.515 362.421,316.900 362.281 C 317.285 362.140,317.600 361.749,317.600 361.413 C 317.600 361.076,317.870 360.800,318.200 360.800 C 318.530 360.800,318.800 360.530,318.800 360.200 C 318.800 359.867,319.156 359.600,319.600 359.600 C 320.133 359.600,320.400 359.333,320.400 358.800 C 320.400 358.176,320.667 358.000,321.613 358.000 C 322.321 358.000,322.921 357.751,323.055 357.400 C 323.182 357.070,323.524 356.800,323.816 356.800 C 324.107 356.800,324.460 356.440,324.600 356.000 C 324.740 355.560,325.112 355.200,325.427 355.200 C 325.742 355.200,326.000 354.930,326.000 354.600 C 326.000 354.270,326.287 354.000,326.637 354.000 C 326.988 354.000,327.369 353.640,327.484 353.200 C 327.599 352.760,327.942 352.400,328.247 352.400 C 328.551 352.400,328.800 352.130,328.800 351.800 C 328.800 351.470,329.129 351.200,329.530 351.200 C 329.932 351.200,330.555 350.885,330.915 350.500 C 331.276 350.115,332.192 349.125,332.952 348.300 C 333.712 347.475,334.454 346.800,334.601 346.800 C 335.128 346.800,339.643 341.939,340.008 340.979 C 340.213 340.441,340.655 340.000,340.990 340.000 C 341.333 340.000,341.600 339.650,341.600 339.200 C 341.600 338.756,341.867 338.400,342.200 338.400 C 342.530 338.400,342.800 338.130,342.800 337.800 C 342.800 337.470,343.087 337.200,343.437 337.200 C 343.788 337.200,344.169 336.840,344.284 336.400 C 344.399 335.960,344.742 335.600,345.047 335.600 C 345.351 335.600,345.600 335.330,345.600 335.000 C 345.600 334.670,345.887 334.400,346.237 334.400 C 346.588 334.400,346.969 334.040,347.084 333.600 C 347.199 333.160,347.542 332.800,347.847 332.800 C 348.151 332.800,348.400 332.542,348.400 332.227 C 348.400 331.912,348.760 331.540,349.200 331.400 C 349.751 331.225,350.000 330.795,350.000 330.016 C 350.000 329.380,350.263 328.785,350.600 328.655 C 350.930 328.529,351.200 328.149,351.200 327.813 C 351.200 327.467,351.548 327.200,352.000 327.200 C 352.533 327.200,352.800 326.933,352.800 326.400 C 352.800 325.956,353.067 325.600,353.400 325.600 C 353.730 325.600,354.000 325.420,354.000 325.200 C 354.000 324.980,354.360 324.440,354.800 324.000 C 355.240 323.560,355.600 322.840,355.600 322.400 C 355.600 321.960,355.850 321.600,356.155 321.600 C 356.474 321.600,356.823 321.002,356.974 320.200 C 357.131 319.362,357.470 318.800,357.818 318.800 C 358.138 318.800,358.400 318.461,358.400 318.047 C 358.400 317.630,358.757 317.200,359.200 317.084 C 359.640 316.969,360.000 316.607,360.000 316.280 C 360.000 315.953,360.270 315.582,360.600 315.455 C 361.011 315.298,361.200 314.655,361.200 313.413 C 361.200 311.867,361.318 311.600,362.000 311.600 C 362.444 311.600,362.800 311.333,362.800 311.000 C 362.800 310.670,363.070 310.400,363.400 310.400 C 363.730 310.400,364.000 310.059,364.000 309.643 C 364.000 309.226,364.252 308.789,364.560 308.671 C 364.868 308.552,365.246 307.711,365.400 306.800 C 365.554 305.889,365.932 305.048,366.240 304.929 C 366.568 304.804,366.800 304.152,366.800 303.357 C 366.800 302.428,366.986 302.000,367.390 302.000 C 368.080 302.000,369.600 298.884,369.600 297.469 C 369.600 296.830,369.876 296.421,370.400 296.284 C 371.031 296.119,371.200 295.738,371.200 294.486 C 371.200 293.562,371.451 292.690,371.800 292.400 C 372.130 292.126,372.400 291.654,372.400 291.351 C 372.400 291.048,372.760 290.440,373.200 290.000 C 373.640 289.560,374.000 288.862,374.000 288.449 C 374.000 288.036,374.270 287.474,374.600 287.200 C 374.930 286.926,375.200 286.094,375.200 285.351 C 375.200 284.533,375.516 283.684,376.000 283.200 C 376.533 282.667,376.800 281.867,376.800 280.800 C 376.800 279.644,376.967 279.200,377.400 279.200 C 377.814 279.200,378.000 278.784,378.000 277.854 C 378.000 277.114,378.360 276.050,378.800 275.491 C 379.244 274.927,379.600 273.868,379.600 273.113 C 379.600 272.365,379.864 271.404,380.187 270.976 C 380.554 270.492,380.779 269.261,380.787 267.700 C 380.799 265.471,380.887 265.200,381.600 265.200 C 382.301 265.200,382.400 264.933,382.400 263.043 C 382.400 261.494,382.569 260.821,383.000 260.655 C 383.443 260.485,383.600 259.784,383.600 257.975 C 383.600 255.862,383.710 255.496,384.400 255.316 C 385.095 255.134,385.200 254.770,385.200 252.539 C 385.200 251.037,385.431 249.604,385.757 249.086 C 386.063 248.599,386.438 246.678,386.591 244.818 C 386.744 242.958,387.124 241.073,387.435 240.629 C 387.837 240.055,388.000 238.578,388.000 235.511 C 388.000 232.162,388.120 231.200,388.539 231.200 C 389.082 231.200,389.600 225.920,389.600 220.387 C 389.600 218.840,389.795 217.936,390.200 217.600 C 391.046 216.898,391.110 180.767,390.267 179.924 C 389.882 179.539,389.659 177.330,389.466 172.011 C 389.251 166.069,389.082 164.566,388.599 164.296 C 388.144 164.041,388.000 163.185,388.000 160.741 C 388.000 158.817,387.771 157.013,387.432 156.260 C 387.119 155.567,386.674 153.304,386.443 151.231 C 386.211 149.158,385.837 147.277,385.611 147.051 C 385.385 146.825,385.200 145.688,385.200 144.523 C 385.200 142.840,385.036 142.305,384.400 141.907 C 383.728 141.488,383.600 140.974,383.600 138.704 C 383.600 136.567,383.474 136.000,383.000 136.000 C 382.520 136.000,382.400 135.402,382.400 133.014 C 382.400 130.438,382.290 129.969,381.600 129.600 C 381.007 129.282,380.800 128.762,380.800 127.586 C 380.800 126.443,380.632 126.000,380.200 126.000 C 379.797 126.000,379.600 125.597,379.600 124.774 C 379.600 121.579,376.914 120.839,375.054 123.522 M166.596 123.607 C 166.458 123.830,166.190 123.917,166.000 123.800 C 165.810 123.683,165.537 123.778,165.393 124.012 C 165.112 124.465,166.468 124.355,167.681 123.826 C 168.055 123.663,168.578 123.663,168.843 123.826 C 169.147 124.015,169.219 123.954,169.038 123.662 C 168.686 123.092,166.939 123.052,166.596 123.607 M162.300 124.682 C 162.795 124.778,163.605 124.778,164.100 124.682 C 164.595 124.587,164.190 124.509,163.200 124.509 C 162.210 124.509,161.805 124.587,162.300 124.682 M99.600 139.224 C 99.600 139.457,99.432 139.544,99.228 139.417 C 99.023 139.291,98.765 139.333,98.655 139.510 C 98.545 139.688,98.803 139.860,99.228 139.892 C 99.660 139.925,100.000 139.697,100.000 139.375 C 100.000 139.059,99.910 138.800,99.800 138.800 C 99.690 138.800,99.600 138.991,99.600 139.224 M18.229 142.229 C 17.862 142.595,17.652 142.985,17.762 143.095 C 17.872 143.205,18.262 142.995,18.629 142.629 C 18.995 142.262,19.205 141.872,19.095 141.762 C 18.985 141.652,18.595 141.862,18.229 142.229 M307.600 143.433 C 307.600 144.140,308.461 144.017,308.708 143.275 C 308.795 143.014,308.582 142.800,308.233 142.800 C 307.885 142.800,307.600 143.085,307.600 143.433 M79.100 145.876 C 78.715 145.976,78.400 146.232,78.400 146.443 C 78.400 146.665,78.782 146.630,79.300 146.360 C 80.800 145.579,80.745 145.446,79.100 145.876 M303.100 148.129 C 302.495 148.625,302.000 149.165,302.000 149.331 C 302.000 149.496,302.225 149.441,302.500 149.208 C 302.775 148.976,303.433 148.429,303.961 147.993 C 304.490 147.557,304.760 147.206,304.561 147.214 C 304.363 147.222,303.705 147.634,303.100 148.129 M299.277 151.630 C 299.356 151.867,299.591 152.060,299.800 152.060 C 300.009 152.060,300.245 151.867,300.323 151.630 C 300.402 151.393,300.167 151.200,299.800 151.200 C 299.433 151.200,299.198 151.393,299.277 151.630 M51.900 155.232 C 50.848 155.845,50.990 157.211,52.100 157.154 C 52.777 157.119,52.827 157.062,52.300 156.924 C 51.430 156.697,51.424 156.458,52.262 155.531 C 53.006 154.709,52.920 154.638,51.900 155.232 M254.734 176.669 C 254.368 176.766,253.967 177.109,253.843 177.432 C 253.663 177.900,253.773 177.936,254.387 177.607 C 255.004 177.276,255.988 176.272,255.524 176.446 C 255.456 176.472,255.100 176.572,254.734 176.669 M249.776 178.587 C 249.124 179.081,249.104 179.177,249.651 179.187 C 250.009 179.194,250.526 178.930,250.800 178.600 C 251.438 177.831,250.787 177.823,249.776 178.587 M187.684 185.815 C 187.017 186.572,187.622 186.570,188.624 185.813 C 189.209 185.370,189.252 185.226,188.800 185.228 C 188.470 185.229,187.968 185.494,187.684 185.815 M173.832 187.025 C 173.485 187.373,173.200 187.717,173.200 187.791 C 173.200 188.046,174.813 187.502,175.013 187.179 C 175.411 186.534,174.449 186.408,173.832 187.025 M8.500 187.823 C 7.764 188.623,7.887 189.370,8.632 188.625 C 8.980 188.277,9.205 187.832,9.132 187.636 C 9.059 187.439,8.775 187.523,8.500 187.823 M163.084 188.895 C 162.809 189.078,163.095 189.135,163.749 189.026 C 164.381 188.921,164.986 188.747,165.094 188.639 C 165.417 188.316,163.607 188.546,163.084 188.895 M155.878 189.456 C 155.558 189.775,155.919 190.400,156.424 190.400 C 156.631 190.400,156.800 190.130,156.800 189.800 C 156.800 189.181,156.328 189.005,155.878 189.456 M7.701 195.000 C 7.705 195.880,7.787 196.193,7.883 195.695 C 7.979 195.198,7.975 194.478,7.875 194.095 C 7.775 193.713,7.696 194.120,7.701 195.000 M6.522 209.059 C 6.383 209.421,6.454 210.208,6.680 210.806 C 6.953 211.531,6.958 212.146,6.694 212.647 C 6.317 213.362,6.334 213.365,7.022 212.712 C 7.654 212.113,7.679 211.896,7.220 211.038 C 6.930 210.496,6.790 209.681,6.909 209.226 C 7.166 208.242,6.882 208.120,6.522 209.059 M6.468 219.221 C 6.431 220.153,6.565 220.745,6.782 220.611 C 6.989 220.483,7.089 219.824,7.003 219.146 C 6.774 217.337,6.540 217.370,6.468 219.221 M7.701 231.400 C 7.705 232.280,7.787 232.593,7.883 232.095 C 7.979 231.598,7.975 230.878,7.875 230.495 C 7.775 230.113,7.696 230.520,7.701 231.400 M65.544 233.917 C 64.452 234.646,63.762 235.321,62.800 236.602 C 62.046 237.604,63.075 236.854,64.770 235.165 C 65.341 234.596,66.076 234.036,66.404 233.920 C 66.732 233.804,66.903 233.603,66.784 233.472 C 66.665 233.341,66.107 233.541,65.544 233.917 M58.977 240.167 C 58.550 240.479,58.324 240.857,58.474 241.008 C 58.624 241.158,59.153 240.902,59.649 240.440 C 60.663 239.495,60.170 239.295,58.977 240.167 M52.686 246.393 C 52.510 247.068,52.592 247.125,53.239 246.779 C 54.125 246.305,54.249 245.600,53.447 245.600 C 53.142 245.600,52.800 245.957,52.686 246.393 M46.300 253.876 C 45.915 253.976,45.600 254.315,45.600 254.629 C 45.600 255.461,46.304 255.327,46.800 254.400 C 47.035 253.960,47.177 253.621,47.114 253.646 C 47.051 253.672,46.685 253.775,46.300 253.876 M10.493 257.200 C 10.493 257.970,10.575 258.285,10.676 257.900 C 10.776 257.515,10.776 256.885,10.676 256.500 C 10.575 256.115,10.493 256.430,10.493 257.200 M37.887 265.832 C 37.350 266.549,37.318 266.730,37.756 266.561 C 38.076 266.439,38.446 266.056,38.578 265.712 C 38.952 264.737,38.669 264.786,37.887 265.832 M13.600 274.702 C 13.600 274.922,13.870 275.326,14.200 275.600 C 14.535 275.878,14.800 275.921,14.800 275.698 C 14.800 275.478,14.530 275.074,14.200 274.800 C 13.865 274.522,13.600 274.479,13.600 274.702 M23.200 289.833 C 23.200 290.182,23.414 290.395,23.675 290.308 C 24.417 290.061,24.540 289.200,23.833 289.200 C 23.485 289.200,23.200 289.485,23.200 289.833 M64.000 412.000 C 64.000 412.220,64.630 412.400,65.400 412.400 C 66.170 412.400,66.800 412.220,66.800 412.000 C 66.800 411.780,66.170 411.600,65.400 411.600 C 64.630 411.600,64.000 411.780,64.000 412.000 M150.000 412.000 C 150.000 412.220,150.360 412.400,150.800 412.400 C 151.240 412.400,151.600 412.220,151.600 412.000 C 151.600 411.780,151.240 411.600,150.800 411.600 C 150.360 411.600,150.000 411.780,150.000 412.000 " stroke="none" fill="#fa540c" fill-rule="evenodd"></path></g></svg>